<?xml version="1.0" encoding="utf-8"?>
<!-- Generator: Adobe Illustrator 27.1.1, SVG Export Plug-In . SVG Version: 6.00 Build 0)  -->
<svg version="1.1" id="Layer_1" xmlns="http://www.w3.org/2000/svg" xmlns:xlink="http://www.w3.org/1999/xlink" x="0px" y="0px"
	 viewBox="0 0 655.2 141.7" style="enable-background:new 0 0 655.2 141.7;" xml:space="preserve">
<style type="text/css">
	.st0{fill:#0052C4;}
	.st1{fill:url(#SVGID_1_);}
</style>
<g>
	<path d="M492.1,24.9c0,4.4-3.5,7.9-7.9,7.9c-4.4,0-7.9-3.5-7.9-7.9c0-4.4,3.5-7.9,7.9-7.9C488.6,17,492.1,20.5,492.1,24.9z
		 M478.6,122.6h11.3V45h-11.3V122.6z M550.1,69.6c-3.5-1.7-7.4-3.3-11.4-5c-3.3-1.4-6.4-2.7-9.2-4c-2.8-1.2-13.6-5.5-13.6-17
		c0-2.9,0.1-16.3,21.3-16.3c15.6,0,23.9,6.9,23.9,6.9l4.2-10c0,0-10.3-7.3-27.6-7.3C507.4,17,504,35.5,504,44.4
		c0,16.3,12.8,22.5,16.2,24.2c3.3,1.8,7.2,3.5,11.4,5.1c3.3,1.4,6.5,2.7,9.5,3.9c2.9,1.2,5.6,2.6,7.9,4.3c2.2,1.6,7.4,5.7,7.4,15
		c0,6.2-1.5,17.5-24.2,17.5c-16.8,0-27.3-7.3-27.3-7.3l-3.8,10.3c0,0,11.1,7.4,31,7.4c24.7,0,36.5-11.5,36.5-28.5
		C568.6,77.3,553.7,71.3,550.1,69.6z M380.7,19.2H369v63.5c0,5.5,0,31.4-26.3,31.4c-26.3,0-26.3-26-26.3-31.4V19.2h-11.7V84
		c0,5.6-0.6,40.8,38,40.8c38.6,0,38-35.2,38-40.8V19.2z M430,43.6c-15.1,0-24,2.7-29.9,4.3v74.7h11.3V55.7
		c6.6-1.6,12.8-1.8,17.2-1.8c17.7,0,21.2,10.1,21.2,28.5v40.2h11.3V79.3C460.9,61.4,456,43.6,430,43.6z M627.6,114.2
		c-23,0-37.5-15.7-37.5-43.3c0-27.6,14.4-43.3,37.5-43.3c10.1,0,17.3,2.9,22.2,5.9l5.4-9.3c0,0-10.1-7.3-29.5-7.3
		c-25,0-47.8,18.8-47.8,53.8c0,0,0,0.1,0,0.1c0,0,0,0.1,0,0.1c0,35,22.8,53.8,47.8,53.8c19.4,0,29.5-7.3,29.5-7.3l-5.4-9.3
		C644.9,111.3,637.7,114.2,627.6,114.2z"/>
	<g>
		<path class="st0" d="M21.3,75.1c-4.1-4-3-6,2.5-4.4l55.6,15.9c5.5,1.6,8.7-1.6,7.2-7.2L70.8,23.9c-1.6-5.5,0.4-6.6,4.4-2.5
			l40.2,41.6c4,4.1,8.4,2.9,9.8-2.6l14.1-56.1c0.7-2.8,1.6-4.2,2.5-4.2H0v141.7c18.5-8.3,42.7-14.9,70.4-19.1L21.3,75.1z"/>
		<linearGradient id="SVGID_1_" gradientUnits="userSpaceOnUse" x1="123.8782" y1="159.586" x2="256.3909" y2="27.0733">
			<stop  offset="0.2703" style="stop-color:#FFDD15"/>
			<stop  offset="0.8809" style="stop-color:#FAAF40"/>
		</linearGradient>
		<path class="st1" d="M141.7,129.2c57.4,0,108.6,4.9,141.7,12.6c-18.5-8.3-42.7-14.9-70.4-19.1l49.1-47.5c4.1-4,3-6-2.5-4.4
			L204,86.7c-5.5,1.6-8.7-1.6-7.2-7.2l15.9-55.6c1.6-5.5-0.4-6.6-4.4-2.5l-40.2,41.6c-4,4.1-8.4,2.9-9.8-2.6L144.3,4.2
			c-0.7-2.8-1.6-4.2-2.5-4.2V129.2z"/>
	</g>
</g>
</svg>
