<svg xmlns="http://www.w3.org/2000/svg" viewBox="0 0 1024 1024" width="1024" height="1024" role="img" aria-label="Prompt Solutions favicon">
  <rect width="1024" height="1024" fill="#fff" />
  <defs>
    <filter id="psShadow" x="0" y="0" width="1024" height="1024" filterUnits="userSpaceOnUse" color-interpolation-filters="sRGB">
      <feOffset in="SourceAlpha" dx="2" dy="3" result="offset" />
      <feGaussianBlur in="offset" stdDeviation="2" result="blur" />
      <feColorMatrix in="blur" type="matrix" values="0 0 0 0 0  0 0 0 0 0  0 0 0 0 0  0 0 0 0.28 0" result="shadow" />
      <feMerge>
        <feMergeNode in="shadow" />
        <feMergeNode in="SourceGraphic" />
      </feMerge>
    </filter>
  </defs>
  <path fill="#000" fill-rule="evenodd" clip-rule="evenodd" filter="url(#psShadow)" d="M 652 242.025 C 602.928 246.675, 560.711 264.356, 531.060 292.676 C 526.352 297.173, 520.925 302.894, 519 305.388 C 517.075 307.883, 515.253 309.941, 514.951 309.962 C 514.649 309.983, 511.771 306.842, 508.556 302.982 C 505.341 299.123, 498.508 292.485, 493.372 288.232 C 470.497 269.291, 444.072 257.528, 412.253 252.124 C 390.118 248.364, 373.091 247.883, 273.500 248.199 L 178.500 248.500 178.248 511.250 L 177.996 774 218.998 774 L 260 774 260 682.069 L 260 590.138 327.250 589.729 C 398.643 589.295, 402.215 589.082, 423.883 583.985 C 472.972 572.436, 512.324 541.795, 531.024 500.561 C 535.029 491.731, 536.958 489.504, 538.475 491.959 C 539.421 493.490, 554.729 503.263, 564 508.255 C 585.932 520.064, 600.368 525.061, 658.907 541.111 C 707.226 554.360, 724.343 559.884, 740.604 567.476 C 763.456 578.146, 777.995 592.462, 783.243 609.458 C 786.055 618.566, 786.221 636.218, 783.588 646 C 777.009 670.436, 757.871 689.644, 728.445 701.345 C 710.981 708.288, 694.543 711.003, 670.026 710.994 C 633.343 710.980, 605.431 702.407, 583.694 684.478 C 568.395 671.858, 558.795 653.947, 556.202 633.186 L 555.492 627.500 515.558 627.238 C 493.594 627.094, 475.295 627.319, 474.894 627.738 C 474.493 628.157, 474.577 632.550, 475.081 637.500 C 483.147 716.764, 539.955 768.422, 632.500 780.649 C 650.575 783.037, 692.425 783.037, 710.500 780.649 C 746.854 775.846, 776.007 765.541, 801.757 748.393 C 834.295 726.724, 854.984 696.519, 863.200 658.688 C 865.054 650.150, 865.415 645.342, 865.431 629 C 865.451 607.227, 864.169 598.310, 858.850 583.225 C 854.926 572.097, 852.551 567.451, 845.081 556.283 C 827.001 529.252, 797.650 508.238, 757 493.222 C 738.767 486.486, 732.416 484.630, 689.500 473.495 C 638.066 460.150, 622.403 454.748, 604.025 444.014 C 595.541 439.060, 582.498 427.009, 577.954 419.928 C 567.236 403.225, 566.399 378.608, 575.901 359.500 C 587.296 336.585, 609.354 321.549, 642.156 314.335 C 654.843 311.545, 692.713 311.740, 706 314.664 C 741.385 322.451, 766.899 341.995, 776.280 368.500 C 777.642 372.350, 779.070 377.525, 779.452 380 C 780.823 388.885, 776.316 388, 820.197 388 L 859.258 388 858.550 379.750 C 856.503 355.922, 849.980 336.009, 838.372 318.146 C 811.853 277.339, 768.079 251.764, 710.500 243.436 C 698.025 241.632, 664.646 240.827, 652 242.025 M 260 419.413 L 260 521 313.961 521 C 346.582 521, 371.991 520.562, 378.211 519.892 C 420.058 515.386, 448.323 494.865, 460.219 460.351 C 471.614 427.294, 467.975 385.187, 451.497 359.428 C 441.194 343.322, 422.861 329.935, 403 324.016 C 386.158 318.996, 383.069 318.784, 319.750 318.291 L 260 317.826 260 419.413" />
</svg>
