<svg id="visual" viewBox="0 0 1920 1080" width="1920" height="1080" xmlns="http://www.w3.org/2000/svg" xmlns:xlink="http://www.w3.org/1999/xlink" version="1.1"><rect x="0" y="0" width="1920" height="1080" fill="#FFFFFF"></rect><defs><linearGradient id="grad1_0" x1="43.8%" y1="0%" x2="100%" y2="100%"><stop offset="14.444444444444446%" stop-color="#ffffff" stop-opacity="1"></stop><stop offset="85.55555555555554%" stop-color="#ffffff" stop-opacity="1"></stop></linearGradient></defs><defs><linearGradient id="grad2_0" x1="0%" y1="0%" x2="56.3%" y2="100%"><stop offset="14.444444444444446%" stop-color="#ffffff" stop-opacity="1"></stop><stop offset="85.55555555555554%" stop-color="#ffffff" stop-opacity="1"></stop></linearGradient></defs><g transform="translate(1920, 0)"><path d="M0 810C-112.6 804.9 -225.2 799.9 -310 748.3C-394.8 696.8 -451.7 598.8 -519.7 519.7C-587.7 440.6 -666.7 380.4 -716.9 297C-767.1 213.5 -788.6 106.7 -810 0L0 0Z" fill="#30b772"></path></g><g transform="translate(0, 1080)"><path d="M0 -810C73.4 -723.6 146.8 -637.2 253.3 -611.6C359.9 -586.1 499.6 -621.4 572.8 -572.8C645.9 -524.1 652.5 -391.5 680.9 -282C709.3 -172.6 759.7 -86.3 810 0L0 0Z" fill="#30b772"></path></g></svg>