<svg id="visual" viewBox="0 0 2000 2000" width="2000" height="2000" xmlns="http://www.w3.org/2000/svg" xmlns:xlink="http://www.w3.org/1999/xlink" version="1.1"><rect x="0" y="0" width="2000" height="2000" fill="#FFFFFF"></rect><defs><linearGradient id="grad1_0" x1="0%" y1="0%" x2="100%" y2="100%"><stop offset="30%" stop-color="#ffffff" stop-opacity="1"></stop><stop offset="70%" stop-color="#ffffff" stop-opacity="1"></stop></linearGradient></defs><defs><linearGradient id="grad2_0" x1="0%" y1="0%" x2="100%" y2="100%"><stop offset="30%" stop-color="#ffffff" stop-opacity="1"></stop><stop offset="70%" stop-color="#ffffff" stop-opacity="1"></stop></linearGradient></defs><g transform="translate(2000, 0)"><path d="M0 919.2C-84.5 860.4 -169 801.5 -243.8 750.4C-318.6 699.3 -383.8 655.9 -442 608.4C-500.2 560.9 -551.5 509.2 -631.8 459.1C-712.2 408.9 -821.5 360.3 -874.2 284.1C-927 207.8 -923.1 103.9 -919.2 0L0 0Z" fill="#30b772"></path></g><g transform="translate(0, 2000)"><path d="M0 -919.2C95 -885.5 190 -851.8 257.7 -793.2C325.5 -734.6 366 -651.1 442 -608.4C518 -565.6 629.5 -563.7 711.1 -516.7C792.8 -469.7 844.5 -377.7 874.2 -284.1C904 -190.4 911.6 -95.2 919.2 0L0 0Z" fill="#30b772"></path></g></svg>