<?xml version="1.0" encoding="UTF-8"?>
<svg id="Layer_2" data-name="Layer 2" xmlns="http://www.w3.org/2000/svg" viewBox="0 0 795.7 259.63">
  <defs>
    <style>
      .cls-1 {
        fill: #233d68;
        stroke-width: 0px;
      }
    </style>
  </defs>
  <g id="Layer_1-2" data-name="Layer 1">
    <g>
      <g>
        <path class="cls-1" d="M365.65,148.72s-1.96,1.18-6.07,1.18c-5.29,0-9.99-3.14-12.53-4.8-3.23-2.15-8.52-5.18-13.8-6.85-10.18,0-16.84-2.84-22.03-9.6-5.19-6.66-7.83-15.27-7.83-25.26,0-14.68,5.58-26.53,15.37-31.81,4.01-2.16,9.01-3.33,14.1-3.33,18.11,0,29.27,13.21,29.27,34.56,0,14.78-5.29,25.84-13.41,31.23,1.86.68,4.5,2.45,6.07,3.43,2.45,1.47,5.38,2.84,8.42,2.84s6.07-.49,6.07-.49l-3.62,8.9ZM344.6,87.44c-1.08-3.42-4.7-8.62-11.94-8.62-4.6,0-8.62,2.35-10.57,5.97-2.35,4.4-3.43,10.38-3.43,18.6,0,11.75,1.96,19.09,6.07,22.03,2.15,1.57,4.89,2.35,8.12,2.35,9.5,0,13.51-7.24,13.51-24.57,0-6.95-.59-11.94-1.76-15.76Z"/>
        <path class="cls-1" d="M405.37,138.54c-1.66-1.17-3.03-2.84-3.92-4.89-3.23,3.13-7.93,4.8-13.22,4.8-7.05,0-13.12-3.33-14.78-8.12-.78-2.25-1.08-4.89-1.08-9.98v-32.11l12.92-2.45v32.21c0,4.5.39,6.85,1.08,8.22.69,1.37,2.65,2.35,4.6,2.35,3.23,0,7.15-2.35,8.13-4.8v-35.24l12.53-2.64v38.28c0,3.33,1.08,6.76,3.03,9.11l-9.3,5.29Z"/>
        <path class="cls-1" d="M436.58,116.22v.39c0,7.73,3.82,12.14,10.57,12.14,4.5,0,8.71-1.66,12.73-4.99l5.09,7.83c-5.78,4.7-11.84,6.95-18.9,6.95-14.39,0-23.69-10.18-23.69-25.94,0-9.01,1.86-14.98,6.27-19.87,4.12-4.6,9.11-6.75,15.76-6.75,5.78,0,11.26,1.96,14.49,5.29,4.6,4.7,6.66,11.45,6.66,21.93v3.04h-28.98ZM451.95,106.04c0-3.72-.39-5.68-1.56-7.54-1.27-1.96-3.14-2.94-5.78-2.94-4.99,0-7.84,3.91-7.84,10.87v.19h15.18v-.58Z"/>
        <path class="cls-1" d="M486.09,116.22v.39c0,7.73,3.82,12.14,10.57,12.14,4.5,0,8.72-1.66,12.73-4.99l5.09,7.83c-5.77,4.7-11.85,6.95-18.9,6.95-14.39,0-23.69-10.18-23.69-25.94,0-9.01,1.86-14.98,6.27-19.87,4.12-4.6,9.11-6.75,15.76-6.75,5.78,0,11.25,1.96,14.49,5.29,4.6,4.7,6.65,11.45,6.65,21.93v3.04h-28.98ZM501.46,106.04c0-3.72-.39-5.68-1.56-7.54-1.28-1.96-3.13-2.94-5.78-2.94-4.99,0-7.82,3.91-7.82,10.87v.19h15.17v-.58Z"/>
        <path class="cls-1" d="M550.98,137.17v-32.6c0-5.68-.98-7.34-4.41-7.34-2.64,0-6.07,1.76-9.1,4.5v35.44h-13.12v-36.32c0-4.31-.58-8.42-1.77-11.75l11.66-3.33c1.17,2.05,1.85,4.21,1.85,6.27,1.96-1.37,3.63-2.54,5.78-3.72,2.64-1.37,6.07-2.15,9.01-2.15,5.58,0,10.48,2.94,12.04,7.24.68,1.86.98,4.01.98,7.15v36.61h-12.93Z"/>
        <path class="cls-1" d="M592.46,138.74c-6.16,0-12.92-1.96-20.26-5.78l4.69-9.59c4.01,2.45,10.97,5.68,16.64,5.68,3.73,0,6.65-2.45,6.65-5.68,0-3.43-2.44-5.19-7.73-6.17l-5.88-1.08c-3.32-.59-7.43-2.94-9.2-5.09-1.77-2.15-2.84-5.78-2.84-9,0-9.79,7.74-16.35,19.39-16.35,8.03,0,13.32,2.45,17.92,4.7l-4.31,8.81c-4.99-2.54-8.61-3.62-12.33-3.62s-6.37,1.96-6.37,4.89c0,2.54,1.66,3.91,6.26,5.09l6.07,1.56c6.18,1.57,8.23,3.43,9.99,5.68,1.86,2.35,2.75,5.19,2.75,8.52,0,10.38-8.61,17.43-21.44,17.43Z"/>
        <path class="cls-1" d="M635.99,138.35c-5.58,0-10.08-2.64-11.65-6.85-.98-2.55-1.18-4.11-1.18-11.26v-37.4c0-6.56-.19-10.57-.68-15.08l13.41-3.03c.49,2.74.68,5.97.68,13.02v39.06c0,8.62.1,9.79.88,11.16.49.88,1.57,1.37,2.64,1.37.49,0,.79,0,1.47-.19l2.26,7.83c-2.26.88-4.99,1.37-7.84,1.37Z"/>
        <path class="cls-1" d="M684.13,139.72c-3.03-1.27-5.77-3.53-7.05-6.07-.98.98-2.05,1.96-3.03,2.64-2.45,1.76-5.97,2.74-10.08,2.74-11.16,0-17.22-5.68-17.22-15.66,0-11.75,8.12-17.23,24.08-17.23.98,0,1.85,0,2.93.1v-2.05c0-5.58-1.08-7.44-5.87-7.44-4.22,0-9.1,2.06-14.49,5.68l-5.58-9.4c2.64-1.67,4.6-2.64,8.12-4.11,4.9-2.06,9.1-2.94,13.7-2.94,8.42,0,14.2,3.13,16.16,8.71.68,2.05.97,3.62.87,9.01l-.29,16.84c-.11,5.48.29,7.83,4.69,11.16l-6.95,8.03ZM672.97,115.24c-9.1,0-12.23,1.66-12.23,7.64,0,3.91,2.44,6.56,5.77,6.56,2.45,0,4.9-1.27,6.86-3.43l.19-10.77h-.58Z"/>
        <path class="cls-1" d="M726.9,137.17v-32.6c0-5.68-.98-7.34-4.41-7.34-2.65,0-6.07,1.76-9.1,4.5v35.44h-13.13v-36.32c0-4.31-.58-8.42-1.76-11.75l11.65-3.33c1.17,2.05,1.86,4.21,1.86,6.27,1.96-1.37,3.62-2.54,5.77-3.72,2.65-1.37,6.07-2.15,9.01-2.15,5.58,0,10.48,2.94,12.04,7.24.69,1.86.98,4.01.98,7.15v36.61h-12.91Z"/>
        <path class="cls-1" d="M783.65,137.17c-.39-.78-.59-1.57-.78-2.94-3.24,2.84-7.06,4.21-11.56,4.21-12.72,0-20.75-9.89-20.75-25.45s8.71-26.43,21.44-26.43c3.62,0,6.46.88,8.91,2.84-.2-1.08-.39-4.5-.39-7.44v-17.23l13.02,2.05v52.08c0,12.33.98,16.35,1.86,18.31h-11.75ZM780.71,100.26c-2.45-2.15-4.79-3.23-7.14-3.23-5.88,0-8.42,4.89-8.42,16.05s2.26,14.29,9.1,14.29c2.45,0,5.2-1.66,6.46-3.23v-23.89Z"/>
        <path class="cls-1" d="M334.32,233.04c-8.42,0-15.57-2.93-20.66-8.41-5.68-6.18-8.32-14.49-8.32-26.04,0-12.83,3.42-21.93,10.38-28.2,4.8-4.3,10.57-6.36,17.52-6.36s13.31,2.25,18.4,6.65l-3.62,4.99c-5.48-3.71-9.4-5.18-14.59-5.18-7.83,0-14,3.62-16.74,11.35-1.76,4.99-2.65,10.68-2.65,17.03,0,8.82,1.67,15.96,4.7,20.37,3.03,4.41,9.89,7.14,16.25,7.14,4.21,0,7.83-.88,10.67-2.64v-20.46h-13.51l-1.57-6.65h22.62v31.32c-4.8,3.13-12.04,5.09-18.89,5.09Z"/>
        <path class="cls-1" d="M387.46,233.24c-13.41,0-21.05-9.89-21.05-25.95s7.93-25.55,20.76-25.55c8.12,0,13.41,3.71,16.74,8.52,3.03,4.41,4.5,10.18,4.5,18.11,0,16.26-8.71,24.87-20.95,24.87ZM397.44,194.28c-2.06-4.31-6.36-6.26-10.38-6.26-4.31,0-8.32,2.05-9.99,5.28-1.56,3.04-2.35,6.95-2.35,12.72,0,6.86,1.18,12.92,3.04,15.96,1.76,2.94,5.68,4.9,9.89,4.9,5.09,0,8.91-2.64,10.57-7.35,1.07-3.03,1.47-5.77,1.47-10.57,0-6.84-.69-11.46-2.25-14.68Z"/>
        <path class="cls-1" d="M438.83,232.46h-7.54l-17.52-48.85,7.83-1.67,11.35,33.58c1.37,4.01,2.35,8.33,2.35,8.33h.19s.78-3.82,2.35-8.22l11.16-32.41h8.12l-18.31,49.24Z"/>
        <path class="cls-1" d="M472.28,208.86v1.17c0,4.61.59,8.13,2.25,10.68,2.74,4.2,7.25,5.97,12.14,5.97s8.52-1.47,11.95-4.6l2.93,4.88c-4.3,3.92-10.18,6.07-16.44,6.07-13.51,0-21.64-9.78-21.64-25.93,0-8.23,1.76-13.51,5.87-18.41,3.92-4.6,8.71-6.76,14.59-6.76,5.29,0,9.89,1.86,13.22,5.29,4.2,4.31,5.58,8.91,5.58,20.56v1.07h-30.45ZM492.35,192.22c-1.66-2.64-5.09-4.31-8.81-4.31-6.95,0-10.86,5.1-11.26,15.18h22.33c-.11-5.29-.79-8.52-2.26-10.87Z"/>
        <path class="cls-1" d="M537.17,190.56c-.49-.2-1.37-.39-2.16-.39-2.93,0-5.87,1.27-8.12,3.52-2.25,2.25-2.83,3.71-2.83,7.73v30.54h-7.64v-37.59c0-7.14-1.66-10.37-1.66-10.37l7.63-2.07s1.86,3.82,1.56,7.93c3.52-4.99,8.72-8.12,13.71-8.12,1.27,0,2.64.49,2.64.49l-3.13,8.33Z"/>
        <path class="cls-1" d="M575.71,231.97v-32.99c0-5.18-.38-6.45-1.76-8.12-1.08-1.27-3.13-2.05-5.39-2.05-3.92,0-9.99,3.13-13.51,6.86v36.31h-7.44v-37.59c0-6.95-1.85-10.27-1.85-10.27l7.43-2.05s1.77,3.62,1.77,7.63c5.09-5.09,10.18-7.54,15.37-7.54s9.99,2.83,11.93,7.14c.79,1.77,1.18,3.73,1.18,5.67v37.01h-7.74Z"/>
        <path class="cls-1" d="M651.66,231.97v-36.03c0-4.7-2.15-7.14-6.26-7.14-4.41,0-7.84,2.84-12.93,7.54v35.63h-7.74v-34.65c0-2.94-.29-4.9-1.36-6.26-1.18-1.37-2.75-1.96-4.99-1.96-3.73,0-7.35,1.85-12.43,6.46v36.41h-7.35v-37.78c0-7.05-1.76-10.38-1.76-10.38l7.44-1.76s1.76,3.81,1.76,7.24c3.24-3.62,9.21-7.35,14.19-7.35s9.6,2.94,11.36,8.13c4.71-4.99,10.67-8.13,15.66-8.13,7.25,0,12.24,5.48,12.24,13.22v36.8h-7.84Z"/>
        <path class="cls-1" d="M680.52,208.86v1.17c0,4.61.58,8.13,2.25,10.68,2.75,4.2,7.24,5.97,12.14,5.97s8.52-1.47,11.95-4.6l2.94,4.88c-4.31,3.92-10.18,6.07-16.45,6.07-13.51,0-21.63-9.78-21.63-25.93,0-8.23,1.76-13.51,5.88-18.41,3.92-4.6,8.71-6.76,14.58-6.76,5.28,0,9.89,1.86,13.21,5.29,4.22,4.31,5.58,8.91,5.58,20.56v1.07h-30.44ZM700.59,192.22c-1.67-2.64-5.1-4.31-8.82-4.31-6.95,0-10.87,5.1-11.25,15.18h22.31c-.1-5.29-.78-8.52-2.25-10.87Z"/>
        <path class="cls-1" d="M752.75,231.97v-32.99c0-5.18-.39-6.45-1.77-8.12-1.08-1.27-3.13-2.05-5.38-2.05-3.92,0-9.99,3.13-13.51,6.86v36.31h-7.44v-37.59c0-6.95-1.86-10.27-1.86-10.27l7.44-2.05s1.76,3.62,1.76,7.63c5.1-5.09,10.19-7.54,15.37-7.54s9.99,2.83,11.95,7.14c.79,1.77,1.17,3.73,1.17,5.67v37.01h-7.73Z"/>
        <path class="cls-1" d="M793.35,189h-10.18v31.42c0,5.39,1.47,7.25,6.26,7.25,2.16,0,3.43-.3,4.8-.98l1.08,4.88c-2.45,1.28-5.18,1.96-8.61,1.96-2.54,0-4.5-.49-6.37-1.36-3.43-1.67-4.69-4.8-4.69-9.7v-33.47h-6.37v-5.78h6.37c0-4.69.78-12.34.78-12.34l8.03-1.76s-.98,7.63-.98,14.1h12.24l-2.35,5.78Z"/>
      </g>
      <g>
        <path class="cls-1" d="M116.52,84.88c-6.25.35-12.36,8.48-9.77,17.71-.95.36-3.66.31-4.54-1.58-.64,3-6.76,6.48-11.23,6.02,2.46-2.66,4.12-8.67,8.94-11.83,4.83-3.2,7-5.37,8.71-10.79-2.24,1.07-13.89,4.07-17.19.48,7.66-1.12,16.72-5.4,21.19-8.24l-1.76-1.89c-4.83,2.73-11.24,4.93-14.5,5.97-1.15-9.59,7.97-9.22,8.66-6.62,3.77-4.48,1.12-10.89-1.65-11.59,2.83-7.66,0-12.36-2.41-15.19-.59,8.12-9.66,9.42-10.71,15.66-.36-4.95-.68-18.33-1.07-24.86-.71-12.12-16.02-16.36-18.37-16.36-10,.47-10.94-.82-10.71-5.48-5.06,5.78-3.35,10.89.94,13.38-.59,3.46-6.12,6.17-9.54,6.93,8.13,7.54,17.54,3.07,22.07-1.23.33-.31.65-.6.97-.86,1.63,2.86,2.8,8.1,2.8,11.12-7.6-.43-8.95,5.46-8.95,7.58,9.65-4.01,10.71,14.47,13.25,17.48-2.48-.18-6.84-5.89-13.25-6.3-7.73-.5-10.48,3.64-13.6,3.47.6,5.49,7.24,8.54,11.54,9.19-2.18,5.6-.26,9.38,4.3,10.77,0-5.11,6.47-6.7,13.42-2.64,8.31,4.86,12.59,5.3,19.31,3.25-1.12,2.4-4.12,2.65-7.83,6.28-5.19,5.11-5.36,11.77-11.12,14.2,6.77,3.23,17.01-1.31,18.49-3.88,2.83,1.76,6.47.7,7.47-1.07-4.59-10.18,3.18-16.25,6.24-16.14,0,0,1.36-3.02-.11-2.93h0ZM81.14,80.69c-3.42-1.42-8.66-2.29-11.6,1.83-1.59-2.77.77-6.96,2.23-8.2-7.47.13-11.71-2.16-12.83-4.41,2.77-1.53,9.77-4.06,15.49.11,3.94,2.91,5.94,4.3,10.6,5.85,1.69-1.7,1.06-.94,1.58-1.42-3.82-2.66-5.52-23.02-13.01-23.78,1.06-2.6,4.95-2.36,8.07-1.53.22-4.57-1.65-12.09-4.5-16.43,4.38-2.29,7.36.17,8.85,5.6,1.6,5.74-.29,20.13,3.47,33.07l2.35-2.18c-1.17-7.54,7.13-10.3,8.96-14.07.7,5.06-.35,7.37-1.77,9.18,3.01.35,4.36,3.3,3.89,5.36-7.24-1.07-11.43,6.21-9.83,11.94-5.34,1.19-9.01.28-11.96-.94h0ZM60.66,24c5.7,2.77,7.53-2.36,18.19,4.54-7.07,2.23-12.49,10.94-20.43,8.71,5.7-2.82,5.11-6.99,8.41-9.07-2.11-.3-6.24-1.24-6.18-4.18h0Z"/>
        <path class="cls-1" d="M190.63,56.91c0-11.34-.4-20.68-.54-23.63.44.12.89.26,1.37.43,8.16,2.84,10,12.66,26.83,1.53-9,1.06-9.47-6.6-13.59-6.77,6.24-3.54,6.65-11.66,6.65-11.66-5.24,4.23-17.37,4.47-19.72,5.89-3.13,1.88-7.09,4.18-9.77,5.64-6.99,3.83-2.12,24.55-2.82,32.15-3.77-11.31-11.42-9.61-15.42-16.08-3.01,5.42.18,14.49,1.4,17.07-4.35,3.54-3.17,10.08-2.12,11.84,3.72-2.69,9.47-2.01,11.22,2.49-4.88,2.97-13.05,3.5-18.64-1.91l-2,2.24c3.94,5.2,13.82,7.23,21.16,3.03-.04,1.19-.3,2.53-.77,4-3.81,2-8.74,3.1-14.37,1.16.76,5.71,7.3,9.94,13.53,11.64-2.11,1.65-4.71,2.3-6.59,2.06,1.19,3.3,1.83,7.72-.64,11.19-3.12-2.06-4.76-4.12-5.94-12.12-1.19-8.01-6.95-16.13-11.42-17.8-.24,2.84-.24,1.6.24,3.43,11.89,8.71,5.17,24.42,17.54,30.08,4.54-5.18,4.59-7.01,3.89-11.89,4.47-1.19,7.83-4.95,9-7.83-4.23,2-10.94-1.54-12.83-4.31,7.36-.23,14.18-5.79,21.14-13.06,6.23-6.54,14.54-5.52,13.89-.41,4.29-.64,6.01-6.54,4.59-10.29,6.3-2,11.24-6.67,11.96-13.96-8.48,4.24-19.2-2.75-27.21,5.84h0ZM200.82,63.04c3.35,2.75,2.24,6.65,1.46,7.52-2.95-5.05-12.36-3.29-21.6,7.13-.65.78-1.51,1.68-2.56,2.59.73-12.47-9.48-12.69-12.51-11.42.35-3.59,2.58-6.07,3.77-6.42-3-3.49-3.66-7.89-4-11.07,5,2.17,12.41,8,13.65,18.06l3.24-2.17c-.97-17.6-.77-17.53-.89-29.5,0-1.66.07-5.58,5.4-5.15.22,4.43.9,16.24.67,32.64h1.88c1.71-4.6,7.78-9.96,14.83-9.48,4.82.32,6.47.23,9.25-.99-2.24,5.47-10.48,7.88-12.6,8.24h0ZM186.98,29.54c3.42-2.46,5.6-3.53,7.36-4.6,2.94.13,8.01-.22,11.08-1.77-3.19,3.9-3.54,5.31-8.72,5.9,6.72.6,9.54,6.59,12.85,7.53-11.2,3.42-12.32-7.71-22.56-7.06h0Z"/>
        <path class="cls-1" d="M144.84,95.59c-.59,0-1.11.29-1.44.72-.63-.12-1.29-.22-1.98-.31l.02-3.62c.66-.28,1.1-.93,1.1-1.68,0-1-.82-1.82-1.82-1.82s-1.82.82-1.82,1.82c0,.7.39,1.29.95,1.59l-.03,3.51c-.62-.07-1.25-.13-1.91-.19-.29-.64-.93-1.07-1.66-1.07-1.01,0-1.83.8-1.83,1.82s.82,1.82,1.83,1.82c.64,0,1.21-.33,1.53-.84.71.08,1.38.15,2.02.22l-.04,5.33c-.58.31-.98.9-.98,1.61,0,1.01.82,1.83,1.83,1.83s1.83-.82,1.83-1.83c0-.74-.44-1.37-1.08-1.66l.05-5.08c.59.08,1.17.17,1.72.27.25.71.92,1.24,1.71,1.24,1,0,1.83-.81,1.83-1.83s-.82-1.83-1.83-1.83h0Z"/>
        <path class="cls-1" d="M129.06,94.54c-.74,0-1.38.43-1.67,1.07-.65.06-1.29.12-1.9.19l-.03-3.51c.56-.3.95-.89.95-1.59,0-1-.81-1.82-1.82-1.82s-1.82.82-1.82,1.82c0,.75.45,1.4,1.09,1.68l.04,3.62c-.69.09-1.37.18-2,.31-.33-.43-.85-.72-1.43-.72-1,0-1.82.82-1.82,1.83s.82,1.83,1.82,1.83c.8,0,1.47-.52,1.72-1.24.55-.1,1.12-.19,1.72-.27l.04,5.08c-.63.29-1.06.92-1.06,1.66,0,1.01.82,1.83,1.82,1.83s1.82-.82,1.82-1.83c0-.7-.4-1.3-.98-1.61l-.04-5.33c.65-.07,1.32-.14,2.02-.22.32.52.88.84,1.54.84,1.01,0,1.82-.8,1.82-1.82s-.82-1.82-1.82-1.82h0Z"/>
        <path class="cls-1" d="M153.22,110.12c-1.11-7.32-3.74-27.87-4.05-34.74l-3.13.14c.05,1.18.17,2.72.33,4.51-3.76-1.1-8.7-1.88-13.73-1.88s-9.95.78-13.71,1.88c.16-1.79.27-3.34.33-4.51l-3.14-.14c-.3,6.87-2.94,27.41-4.06,34.74-1.85.74-3.08,2.6-3.08,5.95,0,0,17.06.25,23.66.25s23.67-.25,23.67-.25c0-3.35-1.23-5.21-3.09-5.95h0ZM132.64,109.95c-2.7,5.18-7.73,5.02-12.12,2.13-1.77-1.17-3.59-1.93-5.24-2.2.76-5.1,2.02-14.72,2.92-22.85,5.7-2.57,12.72-3.18,14.44,3.38,1.73-6.56,8.75-5.95,14.44-3.38.91,8.12,2.17,17.74,2.93,22.85-1.65.26-3.47,1.03-5.24,2.2-4.39,2.89-9.42,3.06-12.13-2.13h0Z"/>
        <path class="cls-1" d="M96.45,118.31c9.83,3.53,20.9,5.77,32.67-.12-1.53,5.25-3.83,8.37-6.71,10.61,1.65,4.12,4.24,9.23,5.3,13.35,3.12,2.06,2.53,5.6,2,7.96-.49,2.19-7.66,4.77-10.01,4.06-2.22-.67-2.23-1.7-3.35-1.6-3.12.29-12.83,9.85-22.19.7v-19.66c3.65-2,6.71-3.82,8.48-6.41-2.06-1.36-5-5.07-6.18-8.9h0ZM106.87,127.04c-2.48,3.88-4.89,5.82-9.53,8.45v15.9c6.11,5.42,14.12.71,17.3-1.18-.94-1.52-1.29-2.59-1.71-4.41-7.76.82-10.71-3.12-12.29-8.9,0,0,1.41-.93,2.82-1.63,2.71,8.83,7.66,7.58,11.54,7.41,2.54-2.3,6.06-3.07,9.19-2.83-.83-3.53-3.18-8.01-5.53-11.89,2.12-1.35,4.64-2.94,6.36-5.65-10.42,3.71-14.89,2.41-23.73-.06,1.59,2.25,3.76,3.89,5.6,4.78h0ZM124.76,142.81c-1.77-.58-7.28.94-7.89,2.47-.47,1.18.57,3.89,2.66,5.18,1.24.76,6.24-.77,7.07-1.96.69-.98-.06-5.12-1.83-5.7h0Z"/>
        <path class="cls-1" d="M171.74,131.38c0-6-4.35-11.47-11.08-11.47-6.18,0-13.88,3-14.36,8.41-9.06,5.29-13.36,10.07-12.01,14.61-3.06,3.29-.71,9.41,8.36,5.52-2.41,2.36-3.29,5.31-3.29,7.78h30.48c-3.17-16.73,1.89-13.78,1.89-24.85h0ZM162.55,129.61c-1.56-.37-8.29-.75-10.53,4.28-1.29.04-2.68-.48-3.48-1.27-.88,1.13-2.24,1.88-4.12,2.42,1.62,3.33,4.96,2.76,6.98,1.16-.07.45-.09.92-.09,1.42,0,8.18,8.71,10.23,14.07,7.17-.89,2.66-.48,6.01-.12,8.25h-21.08c.36-2.24,3.18-4.84,5.53-6.48l-1.88-2.94c-2.29,1-4.44,1.92-6.92,2.57-5.84,1.52-5.49-2.65.56-4.34v-1.65l-3.89-.06c.94-4.11,8.94-9.34,12.54-10.6-.2-4.45,5.7-5.92,10.42-6.04,5.87-.17,7.25,6.12,7.25,8.07,0,2.6-.68,8.32-3.92,10.12-4.71,2.59-8.72-.99-8.72-4.23,0-3.53,2.45-5.6,6.69-5.12,4.23.45,3.92-1.92.7-2.72h0Z"/>
        <path class="cls-1" d="M162,189.14v-7.39h-3.32c-.19-7.67-2.01-13.2-5.58-16.87l-1.03-1.07-1.04,1.07c-3.55,3.67-5.38,9.2-5.57,16.87h-3.19v6.95c-4.1,1.29-6.96,3.45-10.38,6.07l-.12.1,1.76,2.29.12-.1c5.34-4.09,8.87-6.79,18.42-6.79s13.86,4.14,16.67,8.64l2.44-1.54c-1.97-3.16-4.61-6.34-9.19-8.25h0ZM152.07,168.11c2.34,3.12,3.56,7.59,3.72,13.64h-7.43c.15-6.04,1.37-10.52,3.71-13.64h0ZM145.16,187.96v-3.33h13.94v3.58c-2.01-.53-4.33-.81-7.03-.81s-4.93.2-6.91.57h0Z"/>
        <path class="cls-1" d="M159.68,202.52c.67-2.46.07-4.77-1.15-6.15-1.24-1.45-3.43-2.36-5.96-2.01l2.78,3.17-4.87,4.1-2.16-2.5s.8-.69,1.94-1.69c-1.7-1.96-4.08-3.64-7.47-2.87-1.23,3.25.1,5.83,1.79,7.8,1.16-1,1.96-1.69,1.96-1.69l2.13,2.46-5.95,5.01,1.89,2.16,5.8-5.17,1.92,2.2s-1.22,1.83.56,3.89c1.34-1.16,3.65-3.16,4.98-4.34-1.77-2.04-3.76-1.1-3.76-1.1l-1.94-2.23,4.74-4.25,2.78,3.21h0Z"/>
        <path class="cls-1" d="M121.66,167.99c-.76-4.33-5.61-4.81-7.76-2.88-2.15-1.93-6.95-1.45-7.7,2.88-7.72-1.15-6.87,6.13-5.9,8.14.87,1.79,2.97,6.68,4.41,9.7-.23.06-.46.12-.66.17-.35,1.71-.41,4.01-.12,5.78.35.11.7.22,1.04.33-.78,2.35-2.24,6.1-3.04,7.8,1.06.64,2.17,1.17,3.77,1.52,0,0-.3,1.36-.71,2.71,2.12.71,6.25,1.19,8.95,1.19s6.84-.48,8.96-1.19c-.41-1.35-.71-2.71-.71-2.71,1.59-.35,2.71-.88,3.77-1.52-.8-1.71-2.25-5.45-3.05-7.8.35-.11.7-.22,1.05-.33.3-1.77.24-4.07-.12-5.78-.2-.05-.43-.11-.66-.17,1.43-3.01,3.52-7.91,4.4-9.7.96-2.01,1.82-9.29-5.9-8.14h0ZM113.93,168.47c.3-2.04,6.1-2.44,5.01,2.06-1.1,4.57-2.48,9.84-3.53,14.45-.49-.02-.98-.02-1.48-.02s-.98,0-1.47.02c-1.06-4.61-2.43-9.88-3.53-14.45-1.08-4.5,4.7-4.1,5-2.06h0ZM121.53,187.89c.14.66.16,1.56.04,2.23-1.88.55-5.18.83-7.65.83s-5.77-.28-7.64-.83c-.12-.67-.1-1.57.04-2.23,1.24-.48,6.13-.71,7.6-.71s6.36.22,7.61.71h0ZM102.98,174.94c-1.74-4.12,2.41-5.18,3.3-2.78,1.27,3.47,2.78,9.01,4.05,12.89-1.09.05-2.15.16-3.11.28-.55-1.4-2.37-5.97-4.24-10.39h0ZM122.88,198.62c-1,.35-2.3.81-3.54.94.23,1,.47,1.99.65,2.71-1.65.35-4.29.53-6.07.53s-4.42-.18-6.06-.53c.17-.71.41-1.71.65-2.71-1.24-.12-2.53-.59-3.54-.94.52-1.79,1.33-3.55,1.99-6.02,2.24.51,4.43.71,6.96.71s4.72-.2,6.96-.71c.67,2.47,1.47,4.24,2,6.02h0ZM124.88,174.94c-1.87,4.43-3.68,8.99-4.23,10.39-.96-.12-2.03-.23-3.12-.28,1.28-3.88,2.79-9.42,4.06-12.89.89-2.4,5.04-1.34,3.3,2.78h0Z"/>
        <path class="cls-1" d="M107.51,131.85c2.23.58,3.45.14,5.6,0,.87-.05,2.69.52,2.23,2.83-.24,1.16.18,1.77.52,2.59-1.88-.24-3.7.58-5.18-.12-2.04-.97-1.65-3.77-3.17-5.29h0Z"/>
        <path class="cls-1" d="M232.49,107.72c-.59,7.06-6.07,17.77-12.42,23.2l4.12-.06c4.36-4.19,11.66-11.84,12.72-25.84,0,0-2.83,1.7-4.42,2.7h0Z"/>
        <path class="cls-1" d="M208.7,92.65c.59-.84.41-2.26,2.41-2.78,1.82-.46,1.95.88,2.72,1.07,1.05.24.77.13.17,1-.58.88-.4,2.24-2.23,2.41-2.01.2-1.79-.86-2.8-.86-1.13,0-1.04-.3-.27-.84h0Z"/>
        <g>
          <path class="cls-1" d="M277.52,98.41c-.93.25-3.12.88-4.53,1.05,2.7-2.65,4.36-5.89,4.36-8.59-1.3.42-3.65,1.31-5.77,1.78,4.24-3.6,6.53-7.78,5.54-13.33-1.3.67-3.13,1.72-4.95,2.48,3.7-5.71,3.65-10.71,2.12-13.66-1.65,1.53-3.66,3.35-5.77,4.65,1.35-6.59,1.29-10.83-1.46-13.77-2.83,5.29-5.24,9.23-9.19,13.93.3-4.35-.18-9.76-3.02-12.58,0,0-.81,6.06-2.94,8.01-.52-5.95-2.35-9.2-5.06-12.37,0,0-.19,6.18-1.88,10.01-1.42-5.18-4.07-9.19-7.49-13.02.24,11.43-2.93,32.97-12.12,47.45-1.06,8.59-2,21.49-16.01,29.14-2-1.41-5.55-3.23-10.54-2.94-1.3-6.47,7.19-12.35,14.48-17.08,7.39-4.75,10.58-8.83,10.42-15.19-.17-6.93-4.89-9.79-9.77-10.01-6.89-.28-12.48,5.96-13.79,8.55-2,.94-7.88,2.77-10.29,3.41-2.67.72-5.71,1.82-7.59,3.41,1.11.7,4.35.94,5.59.79,2.33-.35,9.77-1.72,16.89-2.61,2.59,1.41,6.77,3.77,2.35,6.84-6.06,3.88-8.64,4.88-17.19,9.35-13.48,7.07-9.12,24.83-5.81,26.15,0,5.99,5.35,16.84,8.99,20.61,1.66,7.53-.51,18.77-2.82,23.43-1.88-4.59-5.12-15.2-7.24-21.38,2.18-11.71-1.35-16.83-3.83-18.83-2.46-2.01-6.35-1.47-8.89,2.59,3.9-.43,5.19,4.55,5.11,9.71-.1,6.18-1.67,11.14-5.98,11.18.34,5.29,6.05,6.78,8.88,4.25.45,1.17,2.73,8.13,4.91,14.32,1.27,3.65,2.53,7.06,3.34,8.8.91,1.98,7.47,2.26,8.24,0,1.03-3.02,1.86-5.3,3.51-8.8,1.25-2.69,2.97-6.11,5.62-11.14,1.77,3.06,4.12,7.86,5.47,11.14.64,1.54,1.07,2.73,1.12,3.27.53,5.08.23,22.96-1.12,33.68-14.72-4.02-18.89,3.18-17.6,8.54,2.12-2.37,4.89-2.07,6.59-.82-.41,3.94.65,6.76,4.66,7.94,4.24-11.19,19.42-8.7,20.83-7.77.06-2.17,2.11-7.6-5.72-8.71.3-9.66,1.3-21.49,1.66-23.96.36-2.46.65-4-.54-7.88-.35-1.16-.77-2.59-1.22-4.28h0c-1.02-3.92-2.06-9.04-2.13-14.54,1.35,1.34,4.59,2.41,6.83,1.92,1.71,7.31,4.17,5.2,5.48,8.25.66,1.58.81,3.06.99,4.38.17,1.25.37,2.38,1.07,3.34,5.22.16,9.66-1.12,12.86-3.34.97-.69,1.82-1.45,2.55-2.32-1.29-7.77-3.47-11.59-7.53-16.29-1.06-6.38-4.03-12.2-8.11-17.34,5.14-1.7,10.34-5.86,13.06-8.75,2.48-.18,5.3-2.23,5.53-6.24,1.42-.17,2.66-.24,3.77-.48-.11-1.11-.41-2.76-.59-3.76,1.89,0,3.71-.05,5.47-.23-.52-1.48-1.17-3.01-1.7-4.12,1.89,0,4.23-.13,6.12-.24-1-1.88-1.76-3.53-2.36-5.19,2.18-.24,5.55-.76,8.3-1.41-.87-.94-1.88-1.88-3.41-3.35,7.17-2.11,10.3-7.12,10.66-9.3-1.06,0-3.24.46-4.52.35,4-2.36,6.71-5.61,7.11-9.07ZM240.25,65.67c1.77,2.95,3.12,8.25,3.12,12.73,2.25-2.24,3.72-5.9,4.47-8.55,1.01,2.01.89,7.3.66,9.67,2.52-2.12,4.12-5.06,5.64-8.07.31,2.17.35,4.07,0,6.19-5.41,5.75-14.3,13.42-23.66,21.23,5.07-10.46,8.24-19.18,9.77-33.2ZM195.01,186.15c-.71,1.9-1.31,3.86-1.78,6.04-.41,1.94-4.71,1.46-5.3,0-.47-1.19-1.33-3.38-2.36-6.04h0c-2.46-6.45-5.82-15.58-6.65-19.44-1.71,2.76-3.53,4.23-5.48,2.47,7.01-3.13,4.54-22.03,1.82-22.96,3.36-3,7.12,8.42,4.94,16.96,2.09,5.93,6.22,18.03,7.87,22.97.35,1.06.59,1.77.67,2.06.47,1.52,2.42,1.38,2.88,0,.16-.52.37-1.21.65-2.06,1.62-5.27,4.97-16.53,4.42-23.57,3.3.6,4.25,3.64,5.42,7.54-2.73,6.55-5.27,11.05-7.11,16.03ZM268.57,110.43c-1.71,1.87-7.13,4.12-13.61,4.41,1.3,1.36,3.42,2.37,4.84,3.06-1.82.41-4.42.48-6.72.59,1.06,1.83,2.65,4.18,3.24,5.17-1.82,0-3.53-.11-5.65-.23,1.07,1.99,1.3,2.88,2.25,4.53-1.42,0-4.13.05-5.6-.18.47,1.36,1.29,3.18,1.72,4.24-.83,0-2.19,0-3.02.06-6.24,8.65-15.01,17.77-31.49,16.88.48,1.43.82,2.9.95,2.9,2.46.12,7.37-.32,11-.92,2.51,2.78,7.05,9.46,9.42,19.63,1.83,1.12,4.72,6.12,6.12,12.48-2.94,1.7-5.59,2.52-9.42,2.93-1.42-8.1-5.6-8.38-7.59-15.11-2.83.36-6.89-1.81-8.02-5.78h-3.71c-.72,7.79.99,14.95,2.4,21.04.65,2.88,1.25,5.51,1.47,7.86.47,4.74-1.45,23.03-1.53,30.57,3.48-.12,6.13.75,6,3.64-5.48-1.71-14.95-.66-19.42,6.77-1.06-.6-1.76-3.67.05-4.59-2.12-2.29-3.95-3.89-7.82-2.79,1.65-2.74,5.52-4.52,17.18-1.57,1.18-4.01,2.24-29.55,2-35.05.03-.92-.53-2.62-1.4-4.85h0c-2.81-7.1-8.99-19.3-10.43-27.57-2,0-4.94.41-5.94-.59-2.51-2.5-8-10.6-9.07-18.49-1.87-3.17-5.02-15.28,4.42-22.06,6.54-4.73,21.58-10.48,21.48-15.97-.05-3.3-5.64-5.75-7.52-7.12-1.89-1.05-1.2-2.01.4-3.6,8.83-8.64,19.31-.17,13.18,10.31-4.51,7.71-27.37,14.42-22.13,28.91,5,.4,7.43,2.23,9.29,4.71,4.54-1.59,22.14-9.37,23.85-31.74,4.41-2.76,8.95-5.78,13.25-9.3.82,5.65-.11,41.8-32.73,50.1.88,3.06,7.88,3.95,12.01-1.6,4.01.94,8.84-2.35,8.96-5.47,3.59,0,7.41-3.96,6.82-7.66,4.41-1.47,6.47-7.3,4.6-11.71,3.82-1.71,5.12-6.23,3.41-10.66,3.06-2.07,4-7.36,1.41-10.71,1.54-2.83,1.17-5.19,0-7.07,5.89-5.48,13.42-12.42,18.13-20.89.36,5.83-2.71,10.66-6.24,15.94,6.24-4,7.67-4.94,11.54-8-1.12,6.66-8.77,12.77-11.41,15.78,3.64-1.46,9.19-4.12,13.36-6.36-3.6,7.32-9.83,11.48-13.54,13.77,5.13-.94,8.77-1.7,12.12-2.88-2.99,3.35-8.58,7.12-14.93,9,5.12-.11,9.16-.71,13.59-2-3.29,3.42-8.12,6.66-13.78,7.36,5.78,0,6.82.41,12.25-.17Z"/>
          <path class="cls-1" d="M237.67,177.64c-.23-.82-1.3-1.89-2.58-3.88-1.48.35-3.01.46-4.96.35,1.18,2.59,1.18,4.11,1.18,4.01,1.77.36,4,.1,6.36-.48Z"/>
        </g>
        <path class="cls-1" d="M228.37,239.87c-1.98.58-4.35.94-7.94.94h-4.47c-15.31-.3-31.06-4.87-40.71-14.72,13.34-13.49-2.32-24.54-10.81-13.13-2.65,3.57-4.76,6.1-6.59,9.55-1.49,2.78-.36,5.6,2.94,9.89,1.82,2.37,6.33,6.02,10.02,8.41h-76.55c3.69-2.39,8.19-6.04,10.02-8.41,3.3-4.29,4.43-7.11,2.95-9.89-1.83-3.45-3.95-5.98-6.59-9.55-8.48-11.41-24.13-.36-10.8,13.13-9.65,9.86-25.4,14.42-40.73,14.72h-4.22c-3.59,0-5.98-.36-7.96-.94-3.18-.77-3.89.6-2.17,6.06,1.18,3.66,2.12,9.62,2.52,13.7h190.74c.41-4.08,1.35-10.04,2.52-13.7,1.71-5.46,1-6.82-2.17-6.06h0ZM168.67,213.45c2.5-3.34,6.14-2.47,7.66.35,1.6,2.99-.74,6.66-3.89,9.53-4.35-4.7-4.82-8.47-3.77-9.88h0ZM162.32,229.09c-1.55-2.16-2.08-3.42-1.27-5.5.78-2.04,2.4-3.86,4.1-6.4,2.67,10.39,18.34,20.33,29.94,23.62h-18.46c-4.77-2.6-10.81-6.81-14.31-11.72h0ZM88.73,213.8c1.53-2.82,5.17-3.68,7.66-.35,1.06,1.4.59,5.18-3.77,9.88-3.15-2.87-5.5-6.54-3.89-9.53h0ZM99.92,217.19c1.7,2.54,3.32,4.36,4.09,6.4.81,2.08.29,3.34-1.26,5.5-3.5,4.92-9.55,9.13-14.32,11.72h-18.46c11.59-3.3,27.27-13.23,29.95-23.62h0ZM224.71,256.63H40.58c-.83-5.87-1.94-9.62-2.95-12.8h190.03c-1.01,3.18-2.12,6.93-2.95,12.8h0Z"/>
        <path class="cls-1" d="M65.53,252.44c.05,0,.09.02.11.08l.51,1.37c.05.13-.02.23-.1.25-.11,0-.16.04-.16.11,0,.07.13.07.33.09.88.01,1.68.01,2.06.01s.5-.01.5-.1c0-.1-.05-.11-.14-.11-.12,0-.3,0-.45-.05-.24-.05-.55-.19-.96-1.18-.7-1.66-2.44-6.11-2.71-6.7-.11-.27-.17-.36-.28-.36-.1,0-.17.11-.3.44l-2.74,6.83c-.21.56-.41.94-.93.99-.08.02-.23.02-.33.02-.09,0-.13.04-.13.11,0,.09.07.1.2.1.56,0,1.17-.04,1.29-.04.34,0,.81.04,1.16.04.12,0,.18-.01.18-.1,0-.07-.03-.11-.16-.11h-.17c-.33,0-.43-.14-.43-.33,0-.12.05-.41.16-.69l.22-.57c.03-.1.05-.12.1-.12h3.17ZM62.59,251.9s-.05-.03-.04-.08l1.37-3.65s.03-.07.06-.07c.03,0,.04.05.05.07l1.35,3.67s0,.05-.05.05h-2.74Z"/>
        <path class="cls-1" d="M70.98,250.86c0,1.58.42,2.4.97,2.9.79.72,1.85.75,2.42.75.71,0,1.5-.12,2.27-.79.92-.79,1.04-2.07,1.04-3.29v-1.17c0-1.65,0-1.96.02-2.32.02-.36.1-.57.4-.62.13-.02.19-.03.32-.03s.19-.02.19-.1c0-.08-.07-.09-.23-.09-.42,0-1.11.02-1.24.02-.01,0-.7-.02-1.26-.02-.16,0-.23,0-.23.09,0,.07.07.1.19.1.12,0,.3,0,.39.03.36.08.44.25.47.62.02.36.02.66.02,2.32v1.37c0,1.12-.03,2.12-.63,2.7-.44.43-1.02.59-1.5.59-.38,0-.87-.03-1.37-.46-.54-.42-.85-1.09-.85-2.67v-1.53c0-1.65,0-1.96.01-2.32.03-.36.12-.57.41-.62.13-.02.2-.03.32-.03.11,0,.17-.02.17-.1,0-.08-.07-.09-.24-.09-.38,0-1.08.02-1.33.02-.33,0-1.02-.02-1.59-.02-.16,0-.24,0-.24.09,0,.07.07.1.18.1.17,0,.35,0,.44.03.36.08.45.25.46.62.02.36.02.66.02,2.32v1.6h0Z"/>
        <path class="cls-1" d="M82.31,251.17c0,1.01,0,1.88-.07,2.34-.04.3-.09.56-.31.59-.1.02-.23.05-.39.05-.13,0-.18.04-.18.11,0,.07.08.1.22.1.44,0,1.13-.04,1.37-.04.56,0,1.53.13,2.32.13,2.02,0,3.16-.78,3.66-1.29.61-.63,1.19-1.65,1.19-3.06,0-1.28-.52-2.19-1.06-2.73-1.19-1.25-3.01-1.25-4.37-1.25-.66,0-1.34.02-1.68.02-.3,0-1-.02-1.57-.02-.16,0-.25,0-.25.09,0,.07.07.1.19.1.15,0,.34,0,.43.03.35.08.44.25.46.62.03.36.03.66.03,2.32v1.92h0ZM83.67,249.09c0-.86,0-1.82,0-2.18,0-.13.04-.19.14-.24.09-.05.49-.08.7-.08.85,0,2.09.13,3.09,1.11.47.45,1.05,1.33,1.05,2.72,0,1.12-.22,2.13-.91,2.7-.65.59-1.4.81-2.51.81-.86,0-1.29-.24-1.42-.42-.09-.13-.12-.57-.13-.86,0-.19-.01-1.03-.01-2.18v-1.38h0Z"/>
        <path class="cls-1" d="M97.3,252.44c.05,0,.08.02.11.08l.51,1.37c.05.13-.02.23-.1.25-.11,0-.15.04-.15.11,0,.07.13.07.33.09.87.01,1.67.01,2.06.01s.5-.01.5-.1c0-.1-.05-.11-.14-.11-.13,0-.3,0-.46-.05-.23-.05-.54-.19-.96-1.18-.69-1.66-2.44-6.11-2.7-6.7-.11-.27-.18-.36-.28-.36-.1,0-.17.11-.3.44l-2.74,6.83c-.21.56-.42.94-.92.99-.09.02-.24.02-.34.02-.09,0-.13.04-.13.11,0,.09.07.1.2.1.58,0,1.17-.04,1.29-.04.33,0,.81.04,1.16.04.12,0,.18-.01.18-.1,0-.07-.02-.11-.16-.11h-.17c-.33,0-.43-.14-.43-.33,0-.12.05-.41.16-.69l.22-.57c.02-.1.05-.12.1-.12h3.17ZM94.35,251.9s-.05-.03-.04-.08l1.37-3.65s.03-.07.06-.07.04.05.06.07l1.35,3.67s0,.05-.06.05h-2.74Z"/>
        <path class="cls-1" d="M107.96,247.21c.33-.48.55-.79.8-.84.16-.05.28-.08.39-.08.12,0,.18-.02.18-.1s-.08-.09-.2-.09c-.4,0-.85.02-1.07.02-.2,0-.66-.02-1.09-.02-.15,0-.23.02-.23.09s.07.1.13.1c.09,0,.24,0,.36.03.1.05.18.13.18.21,0,.07-.03.25-.11.4-.17.3-1.17,1.83-1.49,2.3-.42-.72-.91-1.53-1.39-2.4-.07-.12-.1-.26-.1-.3,0-.08.03-.16.13-.19.09-.04.23-.05.3-.05.09,0,.16-.02.16-.1,0-.08-.07-.09-.22-.09-.4,0-1.01.02-1.16.02-.52,0-1.4-.02-1.66-.02-.15,0-.22,0-.22.07,0,.1.04.12.11.12.11,0,.28.02.46.08.39.12.64.36.91.82l1.88,3.1-2.08,2.99c-.38.51-.58.72-.9.81-.17.05-.33.05-.4.05-.09,0-.16.04-.16.13,0,.05.05.08.17.08h.18c.18,0,.72-.04.92-.04.27,0,.96.04,1.02.04h.2c.14,0,.22-.01.22-.08,0-.09-.07-.13-.13-.13-.09,0-.19,0-.26-.02-.1-.02-.2-.07-.2-.19-.02-.12.04-.27.15-.45l1.61-2.6c.5.82,1.13,1.9,1.73,2.95.07.14.03.25-.02.25-.1.03-.15.05-.15.14,0,.07.08.09.37.11.84.01,1.71.01,1.96.01h.33c.12,0,.21-.04.21-.1,0-.07-.07-.11-.14-.11-.11,0-.24,0-.42-.05-.28-.1-.45-.22-.63-.48-.27-.33-2.04-3.3-2.39-3.83l1.78-2.57h0Z"/>
        <path class="cls-1" d="M125.8,252.44c.05,0,.09.02.1.08l.5,1.37c.06.13-.02.23-.1.25-.11,0-.15.04-.15.11,0,.07.14.07.33.09.87.01,1.67.01,2.06.01s.5-.01.5-.1c0-.1-.06-.11-.14-.11-.13,0-.29,0-.45-.05-.24-.05-.55-.19-.96-1.18-.7-1.66-2.45-6.11-2.7-6.7-.11-.27-.18-.36-.28-.36s-.17.11-.3.44l-2.74,6.83c-.22.56-.43.94-.93.99-.09.02-.24.02-.34.02-.09,0-.13.04-.13.11,0,.09.07.1.21.1.56,0,1.16-.04,1.29-.04.33,0,.8.04,1.15.04.13,0,.19-.01.19-.1,0-.07-.04-.11-.17-.11h-.17c-.34,0-.44-.14-.44-.33,0-.12.06-.41.16-.69l.24-.57c.02-.1.04-.12.1-.12h3.17ZM122.84,251.9c-.05,0-.05-.03-.05-.08l1.37-3.65s.03-.07.06-.07c.04,0,.05.05.07.07l1.39,3.67s0,.06-.06.06h-2.77Z"/>
        <path class="cls-1" d="M132.49,251.17c0,1.01,0,1.88-.05,2.34-.03.3-.1.56-.31.59-.1.02-.23.05-.4.05-.13,0-.18.04-.18.11,0,.07.08.1.22.1.44,0,1.12-.04,1.37-.04.3,0,1,.04,1.71.04.12,0,.21-.04.21-.1,0-.07-.05-.11-.18-.11-.16,0-.41-.02-.56-.05-.33-.03-.39-.28-.42-.59-.06-.46-.06-1.33-.06-2.34v-4.47l1.37.02c.97.03,1.27.33,1.29.63v.11c.02.17.05.23.13.23.07,0,.09-.07.1-.19,0-.28.04-1.03.04-1.24,0-.18-.01-.23-.09-.23-.09,0-.35.09-1.05.09h-4.32c-.36,0-.77-.02-1.09-.06-.27-.02-.38-.14-.46-.14-.07,0-.1.09-.13.24-.02.08-.23,1.06-.23,1.23,0,.14.03.18.1.18s.1-.04.12-.13c.03-.08.08-.21.18-.39.17-.23.43-.28,1.07-.32l1.61-.03v4.47h0Z"/>
        <path class="cls-1" d="M151.48,250.29s.02-.09.08-.09c.18,0,1.33,0,1.61.04.34.03.5.23.55.39.05.11.06.27.06.33,0,.08.03.16.1.16.1,0,.1-.1.1-.21,0-.05.02-.58.05-.81.03-.31.08-.59.08-.66,0-.05-.02-.11-.06-.11-.07,0-.09.06-.15.12-.11.14-.26.18-.48.2h-.48l-1.39.02c-.07,0-.08-.05-.08-.11v-2.72c0-.14.04-.17.1-.17l1.68.04c.4.02.64.18.72.34.06.16.06.34.06.41.02.12.03.18.11.18s.1-.07.11-.17c.02-.11.03-.76.04-.87.04-.28.1-.42.1-.49s-.04-.09-.08-.09-.1.03-.17.05c-.11.04-.24.04-.45.05-.25.01-2.46.01-2.88.01-.31,0-1-.02-1.57-.02-.16,0-.25,0-.25.11,0,.05.07.07.19.07.15,0,.33,0,.43.03.36.08.45.25.47.62.03.36.03.66.03,2.32v1.92c0,1.06,0,1.88-.07,2.34-.04.3-.09.56-.31.59-.1.02-.22.05-.4.05-.12,0-.16.04-.16.11,0,.09.07.1.22.1.42,0,1.11-.04,1.38-.04.3,0,.99.04,1.66.04.17,0,.24-.04.24-.1,0-.07-.04-.11-.19-.11-.15,0-.39-.02-.54-.05-.33-.03-.39-.28-.43-.59-.05-.46-.05-1.28-.05-2.34v-.88h0Z"/>
        <path class="cls-1" d="M158.46,251.17c0,1.08,0,1.95-.05,2.39-.03.32-.1.5-.33.53-.09.02-.23.05-.39.05-.14,0-.17.04-.17.11,0,.07.08.1.21.1.44,0,1.13-.04,1.38-.04.29,0,.99.04,1.7.04.12,0,.21-.04.21-.1,0-.07-.05-.11-.18-.11-.17,0-.4-.02-.56-.05-.33-.03-.4-.23-.43-.51-.05-.46-.05-1.33-.05-2.41v-1.92c0-1.65,0-1.96.02-2.32.03-.36.1-.57.41-.62.13-.02.21-.03.33-.03.1,0,.16-.02.16-.12,0-.06-.08-.07-.23-.07-.41,0-1.05.02-1.33.02-.31,0-1-.02-1.42-.02-.18,0-.26,0-.26.07,0,.1.06.12.17.12.13,0,.27,0,.39.05.24.05.34.23.36.6.03.36.03.66.03,2.32v1.92h0Z"/>
        <path class="cls-1" d="M164.98,251.17c0,1.01,0,1.88-.06,2.34-.04.3-.1.56-.31.59-.1.02-.23.05-.39.05-.13,0-.18.04-.18.11,0,.07.08.1.23.1.44,0,1.13-.04,1.37-.04.55,0,1.54.13,2.33.13,2.01,0,3.15-.78,3.66-1.29.6-.63,1.18-1.65,1.18-3.06,0-1.28-.51-2.19-1.07-2.73-1.19-1.25-3-1.25-4.37-1.25-.66,0-1.35.02-1.68.02-.3,0-.99-.02-1.57-.02-.17,0-.24,0-.24.09,0,.07.07.1.19.1.15,0,.34,0,.43.03.35.08.44.25.47.62.01.36.01.66.01,2.32v1.92h0ZM166.35,249.09v-2.18c0-.13.04-.19.13-.24.09-.05.5-.08.72-.08.85,0,2.1.13,3.1,1.11.46.45,1.05,1.33,1.05,2.72,0,1.12-.22,2.13-.92,2.7-.65.59-1.39.81-2.51.81-.87,0-1.29-.24-1.43-.42-.09-.13-.11-.57-.11-.86-.02-.19-.02-1.03-.02-2.18v-1.38h0Z"/>
        <path class="cls-1" d="M176.63,251.17c0,1.01,0,1.88-.05,2.34-.04.3-.1.56-.31.59-.11.02-.23.05-.39.05-.13,0-.18.04-.18.11,0,.07.08.1.22.1.44,0,1.13-.04,1.38-.04.64,0,1.37.07,3.02.07.41,0,.52,0,.58-.29.06-.2.15-.96.15-1.2,0-.11,0-.22-.08-.22-.08,0-.1.07-.12.17-.08.44-.21.69-.49.81-.28.11-.74.11-1.02.11-1.11,0-1.28-.16-1.31-.9-.02-.31,0-1.33,0-1.7v-.86s0-.1.06-.1c.26,0,1.34.02,1.55.05.41.02.56.18.61.41.03.15.03.28.05.37,0,.07.02.11.1.11.1,0,.1-.11.1-.2,0-.07.02-.53.04-.71.03-.56.09-.76.09-.8,0-.07-.03-.11-.08-.11-.04,0-.09.08-.16.15-.1.11-.27.13-.53.18-.26.02-1.51.02-1.74.02-.07,0-.08-.07-.08-.13v-2.77c0-.08.02-.11.08-.11.21,0,1.36.03,1.55.04.55.07.65.2.72.4.06.12.08.31.08.4s.02.15.09.15c.08,0,.1-.09.11-.13.03-.14.04-.62.05-.71.04-.51.1-.65.1-.72s-.02-.09-.07-.09c-.05,0-.12.02-.17.03-.08.02-.25.06-.47.07-.2.01-2.37.01-2.73.01-.3,0-.98-.02-1.56-.02-.17,0-.24,0-.24.09,0,.07.06.1.18.1.16,0,.33,0,.42.03.37.08.45.25.47.62.02.36.02.66.02,2.32v1.92h0Z"/>
        <path class="cls-1" d="M186.47,249.26c0-1.65,0-1.96.01-2.32.02-.36.12-.57.4-.62.14-.02.32-.03.43-.03.13,0,.19-.02.19-.1,0-.08-.08-.09-.23-.09-.42,0-1.21.02-1.48.02-.3,0-.98-.02-1.5-.02-.16,0-.23,0-.23.09,0,.07.06.1.17.1.16,0,.28,0,.36.03.36.08.45.25.48.62.02.36.02.66.02,2.32v1.92c0,1.01,0,1.88-.07,2.34-.03.3-.09.56-.31.59-.1.02-.23.05-.39.05-.13,0-.18.04-.18.11,0,.07.08.1.23.1.44,0,1.12-.04,1.38-.04.87,0,1.6.07,3.17.07.57,0,.62-.04.69-.29.08-.33.16-1.12.16-1.26s0-.18-.09-.18-.1.05-.11.17c-.03.19-.15.49-.29.63-.27.3-.7.3-1.28.3-.85,0-1.13-.07-1.32-.23-.22-.2-.22-.95-.22-2.36v-1.92h0Z"/>
        <path class="cls-1" d="M193.27,251.17c0,1.08,0,1.95-.04,2.39-.04.32-.11.5-.32.53-.1.02-.22.05-.39.05-.13,0-.17.04-.17.11,0,.07.08.1.21.1.45,0,1.13-.04,1.38-.04.29,0,.99.04,1.71.04.1,0,.2-.04.2-.1,0-.07-.06-.11-.19-.11-.16,0-.38-.02-.55-.05-.33-.03-.4-.23-.44-.51-.04-.46-.04-1.33-.04-2.41v-1.92c0-1.65,0-1.96.02-2.32.02-.36.12-.57.4-.62.14-.02.22-.03.33-.03.12,0,.18-.02.18-.12,0-.06-.08-.07-.23-.07-.42,0-1.06.02-1.33.02-.32,0-1-.02-1.42-.02-.18,0-.27,0-.27.07,0,.1.07.12.18.12.13,0,.28,0,.39.05.24.05.36.23.37.6.02.36.02.66.02,2.32v1.92h0Z"/>
        <path class="cls-1" d="M200.79,254.5c.58,0,1.19-.1,1.73-.46.79-.49,1.04-1.25,1.04-1.89,0-1.04-.49-1.76-1.8-2.78l-.3-.24c-.9-.68-1.16-1.06-1.16-1.57,0-.66.49-1.12,1.29-1.12.72,0,1.03.33,1.19.53.24.28.29.62.29.72,0,.14.04.18.11.18.09,0,.12-.07.12-.31,0-.86.04-1.16.04-1.3,0-.1-.05-.1-.16-.14-.27-.08-.74-.2-1.45-.2-1.53,0-2.53.88-2.53,2.09,0,.85.41,1.64,1.62,2.56l.5.4c.91.7,1.07,1.2,1.07,1.76s-.48,1.22-1.46,1.22c-.67,0-1.33-.28-1.56-1.1-.06-.2-.11-.41-.11-.56,0-.08-.01-.18-.1-.18s-.12.13-.13.29c-.01.17-.05.84-.05,1.42,0,.25.03.3.2.39.48.18.97.28,1.6.28h0Z"/>
        <path class="cls-1" d="M168.02,30.19c.09-1.63-2.94-2.87-3.7-2.94-1.27-.09-2.89,2.58-4.54,4.25-1.47-7.84-.7-11.2.12-14.67,3.3,6,7.78,7.31,10.13,7.01-7.94-6.37-6.58-12.12-9-12.43-1.39-.16-2.37-.06-3.07-.06-2.8,0-3.18,5.42-3.53,7.9-1.82-3.37-3.59-6.19-6.66-10.07-2.94-7.54-6.53-5.67-10.18-9.07,2.82,4.29.53,6.94,7.13,10.07,1.7,1.63,3.71,4.17,5.06,6.24-1.11,1.47-1.86,2.32-2.88,3.29-.82,1.24-1.23,5.89-3.77,9.42,3.77-1.64,5.24-3.93,6.59-6.18,11.88,8.97,2.22,31.89-.52,36.93-2.62-1.78-5.96-2.76-9.03-3.3l-.31-1.03-2.79-9.05h1.29c1.5,0,1.83-1,1.59-1.78l8.21,2.53,3.63,1.11-2.23-3.08-3.81-5.25,3.81-5.26,2.23-3.08-3.63,1.12-7.38,2.28c-.53-1.67-1.9-2.48-3.41-2.69l2.49-8.37,1.07-3.59-3.03,2.2-5.26,3.82-5.26-3.82-3.02-2.2,1.06,3.59,2.49,8.37c-1.5.21-2.88,1.02-3.41,2.69l-7.38-2.28-3.63-1.12,2.24,3.08,3.81,5.26-3.81,5.25-2.24,3.08,3.63-1.11,8.24-2.53c-.24.78.08,1.78,1.58,1.78h1.28l-2.79,9.05-.32,1.03c-3.14.57-6.58,1.58-9.22,3.44-8.01-15.54-5.75-31.26.97-36.48-.12,3.3,2.77,7.77,4.12,8.71-.89-3.42.65-9.49-1.12-11.01-1.23-1.05-3.12-1.59-5.12-1.53,1.36-2.24,3.23-5.05,6.42-9.24,4.71-2.23,6.07-7.72,7.24-10.46-5.12,1.86-8.88,4.53-9.71,8.83-1.83,2.4-3.83,5.23-6.07,8.59.12-4.07-2.12-5.47-5.07-5.7-8.65,1.81-7.99,8.05-15.41,12.35,5.06,1.77,13.01-9.35,15.72-8.13.41,6.83-1.12,12.19-1.12,15.91-1.3-1.42-1.96-2.42-3.06-2.61-1.06-.16-3.95.07-5.95,2.26-.54,3.43-.4,9.93-3.64,17.71,4.82-4.41,7.11-13.07,7.88-15.59,1.24,1.7,2.59,5.43,2.89,8.64.57,6.2,4.39,16.54,7.63,21.51-.88,1.74-1.16,3.69-.84,5.84-2.53,1.87-2.82,4.48-1.94,6.25.94,1.88,3.4,3.16,6.31,2.01l.93-.38c3.06-1.28,8.77-3.63,15.68-3.63s12.62,2.36,15.69,3.63l.91.38c2.92,1.15,5.38-.13,6.32-2.01.89-1.77.59-4.38-1.93-6.25.35-2.32-.02-4.4-1.08-6.23l.1.09c5.91-8.41,6.3-24.5,11.18-29.09.41,5.66,3.42,10.3,6.36,10.94-2.37-3.88-2.37-11.58-2.19-15.12h0ZM140.94,37.69l4.34-1.34-2.12,2.93-.54.75.54.74,2.12,2.93-5.5-1.69c.48-1.17.9-2.44,1.16-4.31h0ZM120.01,43.69l2.12-2.93.54-.74-.54-.75-2.12-2.93,4.35,1.34c.25,1.87.66,3.14,1.15,4.31l-5.5,1.69h0ZM137.33,42.25h-3.45l.41-6.12c5.19-2.29,4.71,2.47,3.03,6.12h0ZM136.32,52.65l-2.94-2.13-.74-.54-.74.54-2.93,2.13,1.9-6.16h3.54l1.91,6.16h0ZM131.91,29.03l.74.54.74-.54,2.98-2.17-1.71,5.78c-.05.02-.12.03-.18.06-.3-.72-1.01-1.21-1.84-1.21s-1.53.48-1.84,1.21c-.05-.03-.11-.05-.17-.06l-1.71-5.78,2.98,2.17h0ZM127.97,42.25c-1.68-3.64-2.14-8.41,3.03-6.12l.41,6.12h-3.45ZM132.64,53.12l4.12,2.98c-1.75-.15-3.23-.19-4.12-.19s-2.35.04-4.11.19l4.11-2.98h0ZM115.76,74.58l-.89.37c-1.21.47-2.05.08-2.34-.51-.31-.61-.13-1.67,1.38-2.59.2-.11.41-.22.62-.35l2.89,2.4c-.61.24-1.18.47-1.66.68h0ZM125.64,71.41l-3.05-2.98c2.49-.62,5.12-1.05,7.67-1.21l1.82,3.49c-2.3.05-4.46.31-6.44.7h0ZM142.37,72.05l-1.77-4.08c2.67.55,5.25,1.31,7.51,2.27l1.03,4.19c-1.67-.7-3.98-1.61-6.78-2.37h0ZM132.64,64c-5.7,0-12.14,1.35-17.09,3.51.08-1.09.48-2.06,1.18-2.9,2.87-3.47,10.37-4.7,15.92-4.7s13.06,1.23,15.93,4.7c.7.85,1.09,1.8,1.17,2.9-4.95-2.18-11.29-3.51-17.1-3.51h0Z"/>
        <path class="cls-1" d="M91.91,154.64c.77-6.59-.29-7.09-2.18-8.64-1.65-1.37-4.36-1.79-7.06-3.66-1.95-1.35-2.48-3.29-4.95-5.89.59-6.77,7.89-15.08,10.36-13.84l.06-3.36c-3.18-1.07-8.84,2-13.66,13.43-.53-.59-1-.83-1.53-1.19.36-2.64-.52-4.83-2.17-6.83,1.68-1.11,6.64-3.43,9.47-5.46,3.17-2.29,3.77-3.24,7.66-2.3,0,0,.7-.82.94-1.76-2.83-3.64-6.95-2.6-9.77.72-2.23,1.79-7.29,5.19-10.77,6.37-4.75-4-12.12-7.52-17.49-12.91,0,0,7.12-.07,10.43-1.42.88-.54,3.17-4.18,2.23-7.66-1.11-.4-2.71-1.21-4.28-2.11-1.94-1.1-3.84-2.3-4.71-2.95-3.12-2.36-4.38-4.41-9.73-5.76.35-2.46.88-1.89,3.24-3.48,3.01-2.03,4.68-4.48,5.88-6.89.95-1.88-.11-5.76-2.52-.82-.85,1.73-3.18,4.06-5.83,4.77.21-1.54.29-2.41.29-3.23,7.83-5.54,7.06-10.42,6.48-15.02-.35-2.66-3.01-3.76-2.89-1,.08,1.83,1.71,7-3.64,10.07-.12-2.31-.76-3.34-1.24-4.54,4.77-6.3,2.76-12.36.76-15.13-1.27-1.77-4.43-2.38-3,.42,1.17,2.29,3.06,8.54-.47,11.07-1.24-1.53-2.65-2.12-3.12-4.19.35-6.82-.08-11-.94-13.42-.83-2.29-3-3.71-2.83-.35.2,3.79.53,8.59.18,8.89-.36.29-5.42-4.42-7.48-5.82-2.07-1.43-4.53-.9-2.12,1.94,2.12,2.48,8.59,7.23,7.77,8.76-.52.96-5.15-2.83-7.54-3.64-2.41-.82-3.16.43-1.12,2.11,3.3,2.71,5.49,4.48,10.9,6.31,5.42,1.81,8.12,9.33,6.42,20.01-.07.47-1,.41-1.53.23-.25-4.07-.96-8.98-1.94-11.13-1.3-2.83-3.83-2.88-2.88.94.74,3.05,1.17,6.3.64,10.37-4.47-.76-6.18-1.95-8.06-3.08-.19-2.05.88-5.47,1.06-8.52.18-3-1.59-4.89-2.59-1.12-.96,3.61-1.58,5.35-2.18,7.95-1.29-.42-2.64-1.01-3.27-1.71-.3-.33-.02-4.42-.31-7.36-.34-3.34-1.59-3.23-2.6-.31-.46,1.37-.83,3.13-.94,5.31-1.59-.94-2.65-2.77-2.82-4.23.23-3.48.82-7.18,1.23-9.48.29-1.65-.83-5.03-2.12-.95-.94,2.92-1.18,5.36-1.77,7.41-1.13-.08-2.64-6.69-3.4-10.93-.35-1.94-1.95-4.13-2.24.16-.32,4.71.64,9.48,1.82,11.6-2.29-.22-4.47-4.34-6.06-6.76-1.41-2.16-2.08.08-1.95.94,1.36,8.41,8.07,11.42,11.13,12.01,4.71,6.78,13.71,9.65,21.31,12.95-9.89-.11-12.49,3.88-17.01,1.29.2,3.72,2.05,5.46,3.83,6.3,1.28.62,2.52.78,3.11.89.83,4.53,5.12,4.29,8.77,4.53-.94,8.82.12,20.49,7.89,29.19-.23,4.49-.52,10.37-.47,14.27-6.35,5.87-12.02,18.24-14.25,25.07-1.68,5.1-4.19,9.08-8.07,10.95,3.18,3.35,7.89,1.71,10.59-.18.19,2.99.89,5.11,1.36,6.89-1.82,2.71-3.06,4.58-2.88,7.88-2.06.6-3.48,1.83-4.6,3.26-.69.88.13,4.93.88,6.64,2.55,5.67.57,18.48.12,22.25,1.06.07,3,.14,3.41-1.47.62.59,2.18,1.71,2.89,4.18-.19,1.05-.77,4.99,1.23,5.48,1.65.43,8.78.18,9.71-1.06-.7-.8-1.94-2.71-2.71-4.59,0-1.94-.17-4.3-.7-5.3-.82-1.4-2.89-4.71-4.18-5.99-.3-2.36-.53-12.77.59-16.79,1.82-1.28,14.37-10.6,16.95-19.47,2.3.76,1.59,6.99,1.59,15.01,0,2.17,2.64,3.29,4.21,3.49,3.39.41,8.22,3.64,13.64,11.63,1.06-1.11,2.41-2.17,2.41-2.17.71.94,1.54,3.23,2.01,4.71.59,1.11,4.94,1.77,8.3.75,1.1-.37,1.76-.56,2.48-1.74-4.25-7.44-6.8-12.36-12.25-16.44-2.53-1.91-5.89-2.83-8.71-4.63,1.88-3.55,7.06-20.13,3.94-26.21-1.05-1.99-5-4-9.8-3.11,4-4.81,12.17-14.37,13.23-17.3.94,1.11,5.77.35,9.33,1.74,1.31.5,4.96,5.25,5.15,6.89.31,2.93.47,6.41-1.57,14.42,1.42-.21,1.21-.28,2.62-.87.24,2.18-.41,3.82-2.29,7.04.47,2.9,1.76,7.38,3.11,8.2,1.83-5.41,8.54-13.07,8.36-17.6-.23-6.05-3.07-11.25-2.76-13.89h0ZM26.72,98.12c-.94-1.1-1.42-2.39-1.92-2.76,3.77-2.36,8.42-.41,11.25-3.13,1.82,1.01,4.49-.01,5.65-.17,3.92-.57,8.79,3.5,12.37,6.06,1.52,1.1,2.82,1.93,3.71,2-1,3.06-.71,3.66,1.88,4.24-.11.89-.88,1.51-3.83,1.2-3-.32-6.54-.26-8.19-.08-8.91,4.62-11.8-2.76-11.77-7.36v-.06s-.07.05-.12.06c-5.15,2.89-7.63,1.67-9.04,0h0ZM62.62,171.12c3.16,3.95-1.32,20.31-2.97,23.26-1.47,2.63,1.25,4.37,2.64,4.7,6.54,1.65,13.01,7.9,15.13,12.61l-2.3.92c-4.88-6.63-6.18-4.46-7.42-3.21-1.23-2.18-7.12-8.78-10.89-9.14-3.45-.3-3.41-2.4-3.18-4.18.47-3.52.27-8.68-.12-11.47-.47-2.3-2.48-5.01-3.92-5.12.74-1.77-.21-7.37,4.56-9.72,3.54-1.75,7.7.44,8.45,1.36h0ZM89.26,174.6c-.54,0-1-.18-1.3-.84,1.04-3.77,1.35-5.78,1.12-6.54-.89.32-1.53.27-1.94.07,1.02-6.13.36-9.93-.3-12.3-.71-2.54-4.03-6.07-5.17-6.67-1.84-.98-3.37-2.05-6.96-2.47-7.42-6.23-9.44-2.47-14.72-3.11-.72-.94-2.11-2.23-2.11-2.23l-2.36,1.64s2.24,2.83,2.71,4.71c0,0,4.83-.87,8.48.05-1.42,4.66-7.91,10.96-14.19,17.96-6.71,7.48-6.75,9.14-6.59,15.02.18,6.95-9.42,17.38-16.77,22.27-.63,1.76-1.46,17.17-.48,19.53.51.88,2.59,3.3,3.89,5.24.58.87.42,2.98.71,5.02-1,.12-1.71,0-2.48-.38-.46-2.16-2.23-5.04-5.47-7.1.78-8.61,1.65-13.18-1.36-21.72-.27-.76,3.77-3,3.77-3,0,0,1.36-6.32,5.01-9.37-2.59-6.65-2.95-15.65-2.95-15.65,0,0-1.56,2.07-4.15,3.71,6.82-21.66,8.21-15.49,16.24-31.32,5.57-25.26-9.09-30.38-6.91-39.16,5.12,4.83,7.77,3.3,11.95,2.13,3.77,3.17,9.24,10.29,14.36,12.06,8.25,2.82,8.19,10.54,6.9,14.13,3.41,0,6.18,1.24,7.47,3.23,5.79,8.94,9.54,6.24,12.6,10.01,1.46,1.8,0,6.83,1.77,11.31,1.16,2.94,1.65,6.47,1.65,7.47-.18,1.47-2.12,4.24-2.41,6.31h0Z"/>
        <path class="cls-1" d="M45.46,100.01c1.71-.17,2.54-1.07,4.06-.48-.18-.51-1.05-.51-1.23-.94-.02-.15-.04-.31-.06-.47-.2-1.6-.72-2.91-3.3-3.3-.64,1.36-2.94,2.35-4.23,3.12.38.03.69.11.96.18,1.65.56,1.43,2.12,3.8,1.89h0Z"/>
        <path class="cls-1" d="M177.15,114.53h-90.67v33.44c.62.36,1.22.84,1.79,1.54,1.46,1.8,0,6.83,1.77,11.31.08.2.13.41.21.63h41.07v65.47c-4.75-1.92-14.67-6.62-23.68-15.36-11.13-10.76-17.02-23.93-17.68-39.07-.31.74-.59,1.46-.68,2.12-.54,0-1-.18-1.3-.84,1.04-3.77,1.35-5.78,1.12-6.54-.89.32-1.53.27-1.94.07,1.02-6.13.36-9.93-.3-12.3-.09-.31-.21-.64-.38-.98v15.63c0,17.33,6.34,32.24,18.84,44.32,10.96,10.62,23.26,15.58,26.77,16.84l.56.19.57-.19c3.51-1.26,15.81-6.21,26.77-16.84,12.5-12.08,18.84-26.99,18.84-44.32v-2.8c-1.07,1.71-2.18,2.88-3.35,3.06-.07,16.25-6.05,30.29-17.81,41.66-9,8.74-18.94,13.44-23.69,15.36v-65.47h41.51v6.04c4.23-5.4,2.31-19.46,0-21.1v12.37h-85.68v-40.9h85.68v28.21c1.17-.82,2.37.01,3.34,1.85v-33.39h-1.68Z"/>
      </g>
    </g>
  </g>
</svg>